<svg xmlns="http://www.w3.org/2000/svg" width="92" height="92"><symbol viewBox="0 0 92 92" id="icon_one"><rect width="92" height="92" rx="24" fill="#fff"/><path d="M37.734 42.125a2 2 0 002-2v-7.8A6.332 6.332 0 0146.058 26a6.333 6.333 0 016.325 6.325v7.8a2 2 0 004 0v-7.8C56.383 26.632 51.752 22 46.058 22c-5.692 0-10.324 4.632-10.324 10.325v7.8a2 2 0 002 2z" fill="url(#paint0_linear_22728_11655)"/><path d="M69 37.63H58.384v2.495c0 2.206-1.794 4-4 4s-4-1.794-4-4V37.63h-8.649v2.494c0 2.206-1.794 4-4 4s-4-1.794-4-4V37.63H23c-.552 0-.893.435-.762.97l6.998 28.5C29.658 68.702 31.344 70 33 70h26c1.658 0 3.342-1.298 3.766-2.9l6.996-28.497c.131-.537-.209-.971-.762-.971z" fill="url(#paint1_linear_22728_11655)"/><path d="M42.6 48.4a1.4 1.4 0 112.8 0v6.95V54a1.4 1.4 0 112.8 0v1.676c.013-.762.635-2.376 1.4-2.376a1.4 1.4 0 011.4 1.4s.041 1.041.133 1.103C51.357 55.33 51.84 54 52.4 54a1.4 1.4 0 011.4 1.4v7a2.8 2.8 0 01-2.8 2.8h-4.68a5.6 5.6 0 01-3.96-1.64l-2.21-2.21L37 59.94c.005-1.337 1.053-1.74 2.1-1.74.902 0 1.714.14 3.5 1.05V48.4z" fill="#fff"/><defs><linearGradient id="paint0_linear_22728_11655" x1="46.058" y1="22" x2="46.058" y2="42.125" gradientUnits="userSpaceOnUse"><stop stop-color="#EF8080"/><stop offset="1" stop-color="#F0145A"/></linearGradient><linearGradient id="paint1_linear_22728_11655" x1="46" y1="37.631" x2="46" y2="70" gradientUnits="userSpaceOnUse"><stop stop-color="#EF8080"/><stop offset="1" stop-color="#F0145A"/></linearGradient></defs></symbol><symbol viewBox="0 0 93 92" id="icon_two"><rect x=".333" width="92" height="92" rx="24" fill="#fff"/><path fill-rule="evenodd" clip-rule="evenodd" d="M67.785 49.076v17.295c0 3.094-2.425 5.629-5.388 5.629H30.304c-2.964 0-5.388-2.535-5.388-5.629V49.076h16.666v7.511l4.768 3.133 4.769-3.133v-7.51h16.666z" fill="url(#paint0_linear_22728_11661)"/><path fill-rule="evenodd" clip-rule="evenodd" d="M43.252 49.076v6.609l3.098 2.035 3.098-2.035v-6.609h-6.196z" fill="url(#paint1_linear_22728_11661)"/><path fill-rule="evenodd" clip-rule="evenodd" d="M26.407 29.143h39.887c1.882 0 3.42 1.708 3.42 3.795v10.253c0 2.088-1.538 3.796-3.42 3.796H26.407c-1.882 0-3.42-1.708-3.42-3.796V32.938c0-2.087 1.538-3.795 3.42-3.795z" fill="url(#paint2_linear_22728_11661)"/><path fill-rule="evenodd" clip-rule="evenodd" d="M38.045 19.955h16.61a2.814 2.814 0 012.806 2.806v4.377h-3.558v-2.586c0-.698-.57-1.27-1.267-1.27H40.064c-.697 0-1.267.572-1.267 1.27v2.586h-3.558v-4.377a2.814 2.814 0 012.806-2.806z" fill="url(#paint3_linear_22728_11661)"/><defs><linearGradient id="paint0_linear_22728_11661" x1="46.35" y1="49.076" x2="46.35" y2="72" gradientUnits="userSpaceOnUse"><stop stop-color="#EF8080"/><stop offset="1" stop-color="#F0145A"/></linearGradient><linearGradient id="paint1_linear_22728_11661" x1="46.35" y1="49.076" x2="46.35" y2="57.72" gradientUnits="userSpaceOnUse"><stop stop-color="#EF8080"/><stop offset="1" stop-color="#F0145A"/></linearGradient><linearGradient id="paint2_linear_22728_11661" x1="46.35" y1="29.143" x2="46.35" y2="46.987" gradientUnits="userSpaceOnUse"><stop stop-color="#EF8080"/><stop offset="1" stop-color="#F0145A"/></linearGradient><linearGradient id="paint3_linear_22728_11661" x1="46.35" y1="19.955" x2="46.35" y2="27.138" gradientUnits="userSpaceOnUse"><stop stop-color="#EF8080"/><stop offset="1" stop-color="#F0145A"/></linearGradient></defs></symbol><symbol viewBox="0 0 93 92" id="icon_three"><rect x=".667" width="92" height="92" rx="24" fill="#fff"/><g clip-path="url(#clip0_22728_11667)"><path d="M75.193 51.727a5.595 5.595 0 00-2.151-.429 5.61 5.61 0 00-4.186 1.863l-1.22-.505-3.48-1.441a18.19 18.19 0 00.76-5.215c0-1.812-.266-3.562-.76-5.215l3.48-1.441 1.22-.506a5.61 5.61 0 004.186 1.863 5.632 5.632 0 005.195-7.779 5.61 5.61 0 00-5.198-3.473 5.634 5.634 0 00-5.615 5.923l-1.227.508-3.48 1.441a18.381 18.381 0 00-7.373-7.373l1.441-3.479.508-1.225a5.61 5.61 0 005.494-3.465A5.632 5.632 0 0057.593 14a5.61 5.61 0 00-5.198 3.473 5.634 5.634 0 001.435 6.334l-.506 1.223-1.442 3.48a18.196 18.196 0 00-5.215-.76c-1.811 0-3.561.267-5.214.76l-1.442-3.48-.506-1.223a5.634 5.634 0 001.435-6.334A5.61 5.61 0 0035.74 14a5.631 5.631 0 00-5.195 7.779 5.61 5.61 0 005.494 3.465l.508 1.226 1.441 3.479a18.38 18.38 0 00-7.373 7.373l-3.479-1.441-1.227-.508a5.634 5.634 0 00-3.464-5.494 5.595 5.595 0 00-2.15-.43 5.61 5.61 0 00-5.2 3.474 5.632 5.632 0 005.196 7.779 5.61 5.61 0 004.186-1.864l1.22.506 3.48 1.441a18.193 18.193 0 00-.76 5.215c0 1.812.266 3.562.76 5.215l-3.48 1.441-1.22.505a5.61 5.61 0 00-4.186-1.863 5.632 5.632 0 00-5.195 7.779 5.61 5.61 0 005.198 3.473c.74 0 1.464-.144 2.151-.429a5.634 5.634 0 003.464-5.494l1.227-.508 3.479-1.44a18.382 18.382 0 007.373 7.372l-1.44 3.48-.509 1.225a5.61 5.61 0 00-5.494 3.465A5.632 5.632 0 0035.74 78a5.61 5.61 0 005.199-3.474 5.634 5.634 0 00-1.436-6.333l.507-1.223 1.441-3.48c1.653.493 3.404.76 5.215.76 1.812 0 3.562-.267 5.215-.76l1.441 3.48.507 1.223a5.634 5.634 0 00-1.435 6.334A5.61 5.61 0 0057.592 78a5.631 5.631 0 005.195-7.779 5.61 5.61 0 00-5.494-3.465l-.508-1.226-1.44-3.479a18.381 18.381 0 007.372-7.373l3.48 1.441 1.226.508a5.634 5.634 0 003.464 5.494c.688.285 1.411.43 2.151.43a5.61 5.61 0 005.199-3.474 5.631 5.631 0 00-3.044-7.35zM46.666 60.5c-7.995 0-14.5-6.505-14.5-14.5s6.505-14.5 14.5-14.5c7.996 0 14.5 6.505 14.5 14.5s-6.505 14.5-14.5 14.5z"/><path d="M75.193 51.727a5.595 5.595 0 00-2.151-.429 5.61 5.61 0 00-4.186 1.863l-1.22-.505-3.48-1.441a18.19 18.19 0 00.76-5.215c0-1.812-.266-3.562-.76-5.215l3.48-1.441 1.22-.506a5.61 5.61 0 004.186 1.863 5.632 5.632 0 005.195-7.779 5.61 5.61 0 00-5.198-3.473 5.634 5.634 0 00-5.615 5.923l-1.227.508-3.48 1.441a18.381 18.381 0 00-7.373-7.373l1.441-3.479.508-1.225a5.61 5.61 0 005.494-3.465A5.632 5.632 0 0057.593 14a5.61 5.61 0 00-5.198 3.473 5.634 5.634 0 001.435 6.334l-.506 1.223-1.442 3.48a18.196 18.196 0 00-5.215-.76c-1.811 0-3.561.267-5.214.76l-1.442-3.48-.506-1.223a5.634 5.634 0 001.435-6.334A5.61 5.61 0 0035.74 14a5.631 5.631 0 00-5.195 7.779 5.61 5.61 0 005.494 3.465l.508 1.226 1.441 3.479a18.38 18.38 0 00-7.373 7.373l-3.479-1.441-1.227-.508a5.634 5.634 0 00-3.464-5.494 5.595 5.595 0 00-2.15-.43 5.61 5.61 0 00-5.2 3.474 5.632 5.632 0 005.196 7.779 5.61 5.61 0 004.186-1.864l1.22.506 3.48 1.441a18.193 18.193 0 00-.76 5.215c0 1.812.266 3.562.76 5.215l-3.48 1.441-1.22.505a5.61 5.61 0 00-4.186-1.863 5.632 5.632 0 00-5.195 7.779 5.61 5.61 0 005.198 3.473c.74 0 1.464-.144 2.151-.429a5.634 5.634 0 003.464-5.494l1.227-.508 3.479-1.44a18.382 18.382 0 007.373 7.372l-1.44 3.48-.509 1.225a5.61 5.61 0 00-5.494 3.465A5.632 5.632 0 0035.74 78a5.61 5.61 0 005.199-3.474 5.634 5.634 0 00-1.436-6.333l.507-1.223 1.441-3.48c1.653.493 3.404.76 5.215.76 1.812 0 3.562-.267 5.215-.76l1.441 3.48.507 1.223a5.634 5.634 0 00-1.435 6.334A5.61 5.61 0 0057.592 78a5.631 5.631 0 005.195-7.779 5.61 5.61 0 00-5.494-3.465l-.508-1.226-1.44-3.479a18.381 18.381 0 007.372-7.373l3.48 1.441 1.226.508a5.634 5.634 0 003.464 5.494c.688.285 1.411.43 2.151.43a5.61 5.61 0 005.199-3.474 5.631 5.631 0 00-3.044-7.35zM46.666 60.5c-7.995 0-14.5-6.505-14.5-14.5s6.505-14.5 14.5-14.5c7.996 0 14.5 6.505 14.5 14.5s-6.505 14.5-14.5 14.5z" fill="url(#paint0_linear_22728_11667)"/><path d="M46.666 35.25c-5.927 0-10.75 4.822-10.75 10.75s4.823 10.75 10.75 10.75c5.928 0 10.75-4.822 10.75-10.75s-4.822-10.75-10.75-10.75zm1.876 14.875h-3.75v-8.25h3.75v8.25z"/><path d="M46.666 35.25c-5.927 0-10.75 4.822-10.75 10.75s4.823 10.75 10.75 10.75c5.928 0 10.75-4.822 10.75-10.75s-4.822-10.75-10.75-10.75zm1.876 14.875h-3.75v-8.25h3.75v8.25z" fill="url(#paint1_linear_22728_11667)"/></g><defs><linearGradient id="paint0_linear_22728_11667" x1="46.666" y1="14" x2="46.666" y2="78" gradientUnits="userSpaceOnUse"><stop stop-color="#EF8080"/><stop offset="1" stop-color="#F0145A"/></linearGradient><linearGradient id="paint1_linear_22728_11667" x1="46.666" y1="35.25" x2="46.666" y2="56.75" gradientUnits="userSpaceOnUse"><stop stop-color="#EF8080"/><stop offset="1" stop-color="#F0145A"/></linearGradient><clipPath id="clip0_22728_11667"><path fill="#fff" transform="translate(14.666 14)" d="M0 0h64v64H0z"/></clipPath></defs></symbol><symbol viewBox="0 0 92 92" id="icon_four"><rect width="92" height="92" rx="24" fill="#fff"/><path d="M56.006 70h-19v6h19v-6z"/><path d="M56.006 70h-19v6h19v-6z" fill="url(#paint0_linear_22728_11674)"/><path d="M29.173 16.452L15.738 29.887l3.535 3.535 13.435-13.435-3.535-3.535z"/><path d="M29.173 16.452L15.738 29.887l3.535 3.535 13.435-13.435-3.535-3.535z" fill="url(#paint1_linear_22728_11674)"/><path d="M63.113 16.32l-3.536 3.535 13.435 13.436 3.536-3.536L63.113 16.32z"/><path d="M63.113 16.32l-3.536 3.535 13.435 13.436 3.536-3.536L63.113 16.32z" fill="url(#paint2_linear_22728_11674)"/><path d="M58.556 23.708l-2.69-.114a5.056 5.056 0 00-4.284 1.432l-5.505 5.505-5.753-5.754a3.84 3.84 0 00-3.858-.909 3.619 3.619 0 01-3.61-.903L32 22.11 21.395 32.718l1.727 1.727-.113 2.692a5.056 5.056 0 001.431 4.283l9.613 9.612a4.985 4.985 0 011.69-3.259l-2.995-2.995.707-.707 3.129 3.129a4.95 4.95 0 011.422-.54v-3.695l-1.722-1.722.707-.707 1.015 1.015V36.2a3.61 3.61 0 013.142-3.625 3.51 3.51 0 01.991.045l-1.23-1.23.708-.707 1.796 1.796a3.542 3.542 0 013.404-1.908 3.602 3.602 0 013.174 3.332 3.558 3.558 0 011.825-.332 3.62 3.62 0 013.19 3.663v3.424a5.003 5.003 0 013.816 3.625l2.788-2.788.708.707-3.316 3.315c0 .014.004.027.004.04v3.32a3.962 3.962 0 002.379-1.128l6.84-6.84a3.84 3.84 0 00.909-3.858 3.618 3.618 0 01.903-3.611l.854-.854L60.284 21.98l-1.728 1.728z"/><path d="M58.556 23.708l-2.69-.114a5.056 5.056 0 00-4.284 1.432l-5.505 5.505-5.753-5.754a3.84 3.84 0 00-3.858-.909 3.619 3.619 0 01-3.61-.903L32 22.11 21.395 32.718l1.727 1.727-.113 2.692a5.056 5.056 0 001.431 4.283l9.613 9.612a4.985 4.985 0 011.69-3.259l-2.995-2.995.707-.707 3.129 3.129a4.95 4.95 0 011.422-.54v-3.695l-1.722-1.722.707-.707 1.015 1.015V36.2a3.61 3.61 0 013.142-3.625 3.51 3.51 0 01.991.045l-1.23-1.23.708-.707 1.796 1.796a3.542 3.542 0 013.404-1.908 3.602 3.602 0 013.174 3.332 3.558 3.558 0 011.825-.332 3.62 3.62 0 013.19 3.663v3.424a5.003 5.003 0 013.816 3.625l2.788-2.788.708.707-3.316 3.315c0 .014.004.027.004.04v3.32a3.962 3.962 0 002.379-1.128l6.84-6.84a3.84 3.84 0 00.909-3.858 3.618 3.618 0 01.903-3.611l.854-.854L60.284 21.98l-1.728 1.728z" fill="url(#paint3_linear_22728_11674)"/><path d="M43.88 35.69a2.49 2.49 0 00-2.725-2.188 2.598 2.598 0 00-2.243 2.63v11.357a4 4 0 00-4 4v9.673a3.838 3.838 0 002.086 3.37 3.618 3.618 0 011.914 3.193v1.207h15v-2.444l1.984-1.822a5.059 5.059 0 002.016-4.04V45.488a4 4 0 00-4-4v-4.323a2.622 2.622 0 00-2.276-2.668 2.492 2.492 0 00-2.682 2.1h.458V52.04h-1V36.597h.5v-2.431a2.622 2.622 0 00-2.276-2.668 2.502 2.502 0 00-2.724 2.49v1.702h.5v15.444h-1V35.69h.468zm-4.569 20.35h-1v-8h1v8zM53.413 41.8h1v10.443h-1V41.8z"/><path d="M43.88 35.69a2.49 2.49 0 00-2.725-2.188 2.598 2.598 0 00-2.243 2.63v11.357a4 4 0 00-4 4v9.673a3.838 3.838 0 002.086 3.37 3.618 3.618 0 011.914 3.193v1.207h15v-2.444l1.984-1.822a5.059 5.059 0 002.016-4.04V45.488a4 4 0 00-4-4v-4.323a2.622 2.622 0 00-2.276-2.668 2.492 2.492 0 00-2.682 2.1h.458V52.04h-1V36.597h.5v-2.431a2.622 2.622 0 00-2.276-2.668 2.502 2.502 0 00-2.724 2.49v1.702h.5v15.444h-1V35.69h.468zm-4.569 20.35h-1v-8h1v8zM53.413 41.8h1v10.443h-1V41.8z" fill="url(#paint4_linear_22728_11674)"/><defs><linearGradient id="paint0_linear_22728_11674" x1="46.506" y1="70" x2="46.506" y2="76" gradientUnits="userSpaceOnUse"><stop stop-color="#EF8080"/><stop offset="1" stop-color="#F0145A"/></linearGradient><linearGradient id="paint1_linear_22728_11674" x1="22.455" y1="23.169" x2="25.991" y2="26.705" gradientUnits="userSpaceOnUse"><stop stop-color="#EF8080"/><stop offset="1" stop-color="#F0145A"/></linearGradient><linearGradient id="paint2_linear_22728_11674" x1="61.345" y1="18.088" x2="74.78" y2="31.523" gradientUnits="userSpaceOnUse"><stop stop-color="#EF8080"/><stop offset="1" stop-color="#F0145A"/></linearGradient><linearGradient id="paint3_linear_22728_11674" x1="46.143" y1="21.98" x2="46.143" y2="51.032" gradientUnits="userSpaceOnUse"><stop stop-color="#EF8080"/><stop offset="1" stop-color="#F0145A"/></linearGradient><linearGradient id="paint4_linear_22728_11674" x1="46.412" y1="31.488" x2="46.412" y2="68.932" gradientUnits="userSpaceOnUse"><stop stop-color="#EF8080"/><stop offset="1" stop-color="#F0145A"/></linearGradient></defs></symbol><symbol viewBox="0 0 93 92" id="icon_five"><rect x=".333" width="92" height="92" rx="24" fill="#fff"/><path d="M55.565 51.696c2.352 0 4.678.588 6.726 1.701.372.2.713.44 1.062.67 3.361-6.58 5.135-13.54 5.135-20.328 0-.382 0-.776-.012-1.17a1.244 1.244 0 00-.973-1.156c-7.433-1.625-14.166-5.65-19.458-11.631l-.788-.899a1.207 1.207 0 00-.923-.418c-.381-.05-.677.135-.91.394l-1.207 1.33c-5.021 5.525-11.347 9.34-18.289 11.04l-.8.196a1.21 1.21 0 00-.935 1.157C23.75 49.886 33.965 62.33 38.37 66.883a41.698 41.698 0 003.788 3.449 14.227 14.227 0 01-.748-4.482c0-7.805 6.35-14.154 14.154-14.154z" fill="url(#paint0_linear_22728_11680)"/><path d="M61.116 55.56a11.654 11.654 0 00-5.551-1.404c-6.45 0-11.692 5.243-11.692 11.693 0 2.178.59 4.307 1.723 6.129 2.154 3.483 5.87 5.563 9.969 5.563 6.437 0 11.692-5.243 11.692-11.692 0-4.308-2.35-8.247-6.141-10.29zm.437 8.732l-9.145 7.116-3.122-4.883a1.23 1.23 0 112.074-1.326l1.667 2.608 7.014-5.458a1.23 1.23 0 111.512 1.943z" fill="url(#paint1_linear_22728_11680)"/><defs><linearGradient id="paint0_linear_22728_11680" x1="46.333" y1="18.457" x2="46.333" y2="70.332" gradientUnits="userSpaceOnUse"><stop stop-color="#EF8080"/><stop offset="1" stop-color="#F0145A"/></linearGradient><linearGradient id="paint1_linear_22728_11680" x1="55.565" y1="54.156" x2="55.565" y2="77.541" gradientUnits="userSpaceOnUse"><stop stop-color="#EF8080"/><stop offset="1" stop-color="#F0145A"/></linearGradient></defs></symbol><symbol viewBox="0 0 92 92" id="icon_six"><rect width="92" height="92" rx="24" fill="#fff"/><path d="M54.352 34.389a1.872 1.872 0 002.65 0l2.608-2.608a1.878 1.878 0 000-2.651l-6.583-6.581a1.871 1.871 0 00-2.648 0l-2.609 2.608a1.875 1.875 0 000 2.648l6.582 6.584z" fill="url(#paint0_linear_22728_7205)"/><path d="M38.766 50.267a1.876 1.876 0 002.648 0l2.609-2.61a1.872 1.872 0 000-2.649l-6.583-6.583a1.874 1.874 0 00-2.649 0l-2.608 2.608a1.875 1.875 0 000 2.65l6.583 6.584z" fill="url(#paint1_linear_22728_7205)"/><path d="M68.648 50.893l-2.647-2.65a1.875 1.875 0 00-2.648 0l-1.161 1.16-11.205-11.207 2.427-2.428-6.733-6.73-2.428 2.427-3.092 3.09-2.374 2.374 6.732 6.733 2.377-2.373 11.203 11.205-1.048 1.05a1.87 1.87 0 000 2.647l2.647 2.648a1.87 1.87 0 002.65 0l5.299-5.297a1.871 1.871 0 00.001-2.649z" fill="url(#paint2_linear_22728_7205)"/><path d="M49.077 58.943a2.173 2.173 0 00-2.173-2.173H29.936c-1.2 0-2.173.973-2.173 2.172v3.527H23v7.39h30.558v-7.39h-4.481v-3.526z" fill="url(#paint3_linear_22728_7205)"/><defs><linearGradient id="paint0_linear_22728_7205" x1="53.69" y1="22" x2="53.69" y2="34.939" gradientUnits="userSpaceOnUse"><stop stop-color="#EF8080"/><stop offset="1" stop-color="#F0145A"/></linearGradient><linearGradient id="paint1_linear_22728_7205" x1="38.103" y1="37.877" x2="38.103" y2="50.814" gradientUnits="userSpaceOnUse"><stop stop-color="#EF8080"/><stop offset="1" stop-color="#F0145A"/></linearGradient><linearGradient id="paint2_linear_22728_7205" x1="53.992" y1="29.037" x2="53.992" y2="59.39" gradientUnits="userSpaceOnUse"><stop stop-color="#EF8080"/><stop offset="1" stop-color="#F0145A"/></linearGradient><linearGradient id="paint3_linear_22728_7205" x1="38.279" y1="56.77" x2="38.279" y2="69.859" gradientUnits="userSpaceOnUse"><stop stop-color="#EF8080"/><stop offset="1" stop-color="#F0145A"/></linearGradient></defs></symbol></svg>